<svg width="1100" height="1100" viewBox="0 0 1100 1100" fill="none" xmlns="http://www.w3.org/2000/svg">
<path d="M357.899 462.512L638.21 183.707C644.335 178.805 649.955 181.664 652 183.707V370.598C652 402.461 631.577 433.916 621.365 445.661L233.83 836.294C224.027 846.098 222.595 838.337 223.104 833.23V381.321C221.879 371.517 231.784 377.236 236.89 381.321L321.137 467.107C333.391 481.814 350.751 470.171 357.899 462.512Z" fill="white"/>
<path d="M740.787 637.062L459.822 916.289C453.683 921.199 448.05 918.335 446 916.289L446 729.115C446 697.203 466.471 665.701 476.707 653.938L865.145 262.713C874.971 252.894 876.406 260.667 875.896 265.781L875.896 718.375C877.124 728.194 867.196 722.467 862.078 718.375L777.635 632.459C765.352 617.731 747.952 629.391 740.787 637.062Z" fill="white"/>
</svg>
